<?xml version="1.0" standalone="no"?>
<!DOCTYPE svg PUBLIC "-//W3C//DTD SVG 20010904//EN"
 "http://www.w3.org/TR/2001/REC-SVG-20010904/DTD/svg10.dtd">
<svg version="1.0" xmlns="http://www.w3.org/2000/svg"
 width="250.000000pt" height="250.000000pt" viewBox="0 0 250.000000 250.000000"
 preserveAspectRatio="xMidYMid meet">
<metadata>
Created by potrace 1.14, written by Peter Selinger 2001-2017
</metadata>
<g transform="translate(0.000000,250.000000) scale(0.100000,-0.100000)"
fill="#000000" stroke="none">
<path d="M2370 2488 c0 -5 -6 -6 -12 -2 -10 6 -10 4 -2 -7 13 -17 12 -27 -5
-59 l-12 -25 18 22 18 23 1 -28 c1 -15 -1 -21 -3 -14 -3 6 -9 10 -14 6 -5 -3
-5 -14 2 -27 9 -19 8 -20 -3 -6 -16 19 -45 21 -52 3 -3 -8 2 -11 15 -9 11 2
17 0 14 -6 -4 -5 -10 -7 -14 -4 -5 2 -17 -2 -27 -10 -10 -8 -23 -15 -28 -15
-6 0 -1 7 10 15 18 15 18 15 0 8 -15 -5 -17 -3 -11 8 5 8 5 11 -1 6 -5 -5 -10
-13 -10 -18 -1 -5 -2 -14 -3 -20 0 -5 -5 -7 -11 -4 -5 3 -10 1 -10 -5 0 -7 8
-9 19 -5 11 3 22 1 26 -4 4 -7 -1 -8 -11 -4 -14 5 -16 3 -11 -12 7 -17 6 -17
-20 0 -24 16 -26 16 -14 2 16 -20 2 -23 -19 -4 -8 6 -7 3 2 -8 21 -26 26 -49
11 -51 -7 -1 -18 -2 -24 -3 -5 0 -7 -5 -4 -11 3 -5 1 -10 -4 -10 -6 0 -10 10
-8 21 1 12 -5 24 -13 26 -11 3 -12 2 -2 -5 14 -9 6 -42 -10 -42 -5 0 -7 4 -3
9 3 5 1 12 -4 15 -6 4 -8 -7 -6 -25 4 -25 2 -29 -9 -19 -22 17 -31 -8 -11 -30
12 -14 13 -20 4 -26 -7 -4 -10 -3 -5 4 3 6 2 13 -4 17 -9 6 -14 -10 -11 -45 0
-10 -1 -11 -5 -2 -3 6 -10 12 -15 12 -6 0 -7 -5 -3 -12 5 -7 3 -8 -6 -3 -10 6
-12 4 -7 -8 4 -12 2 -14 -10 -10 -13 5 -12 10 11 30 15 13 23 23 17 23 -5 0
-16 -7 -24 -15 -8 -8 -17 -12 -19 -9 -3 2 -5 -5 -4 -16 0 -11 7 -24 14 -29 11
-7 10 -9 -3 -14 -11 -5 -14 -3 -9 5 5 7 2 9 -9 5 -11 -4 -15 -1 -12 12 2 10
-3 18 -11 18 -9 0 -11 -4 -4 -12 5 -7 7 -15 3 -19 -4 -4 -1 -11 7 -16 11 -7
12 -10 2 -10 -7 0 -10 -5 -6 -12 4 -7 3 -8 -4 -4 -7 4 -13 2 -13 -3 -1 -6 -3
-15 -4 -21 -1 -5 -3 -15 -4 -21 0 -5 -5 -8 -10 -4 -6 3 -14 -3 -20 -12 -6 -11
-11 -13 -11 -5 0 7 -5 10 -10 7 -8 -5 -7 -12 2 -23 10 -14 10 -15 -1 -5 -10 8
-17 7 -32 -5 -10 -8 -15 -20 -12 -25 3 -6 1 -7 -5 -3 -7 4 -13 2 -13 -3 -1 -6
-2 -17 -3 -23 0 -7 -8 -13 -16 -13 -8 -1 -14 -7 -12 -14 1 -7 -2 -10 -7 -6
-14 8 -51 -16 -51 -33 0 -7 5 -10 12 -6 7 4 8 3 4 -5 -6 -9 -11 -9 -22 0 -11
9 -17 9 -29 -1 -8 -6 -19 -9 -26 -5 -7 5 -7 0 1 -16 l13 -23 8 23 c10 25 24
21 40 -12 9 -20 9 -20 -9 2 l-19 24 -8 -24 c-4 -13 -6 -28 -6 -33 1 -5 -5 -4
-13 4 -19 15 -21 0 -3 -20 10 -12 9 -12 -3 -3 -22 16 -44 1 -36 -25 4 -11 2
-23 -3 -27 -7 -4 -8 1 -4 12 6 17 5 17 -13 2 -22 -19 -71 -8 -58 12 4 8 3 9
-5 5 -9 -6 -9 -11 0 -22 9 -11 8 -14 -4 -14 -9 0 -19 -4 -22 -10 -4 -7 3 -7
20 0 34 13 35 13 29 -4 -3 -8 -13 -12 -22 -10 -15 5 -15 4 1 -9 13 -11 14 -16
5 -19 -17 -6 -40 1 -34 11 3 4 -1 8 -9 8 -10 0 -12 -4 -5 -12 10 -12 4 -25
-12 -25 -5 0 -6 5 -2 12 4 7 3 8 -4 4 -8 -5 -8 -13 0 -31 6 -13 14 -23 17 -20
4 2 7 -5 7 -16 0 -18 -2 -19 -12 -4 -10 13 -12 13 -17 1 -7 -17 -35 -15 -46 3
-6 10 -10 9 -14 -4 -4 -9 -3 -14 2 -11 4 3 13 -5 19 -18 10 -22 8 -23 -23 -20
-30 2 -60 -15 -60 -35 0 -3 -4 -5 -10 -3 -5 2 -7 0 -3 -4 12 -12 -12 -33 -30
-27 -13 3 -14 2 -4 -4 10 -8 10 -12 -3 -23 -8 -7 -15 -18 -15 -24 0 -6 7 -3
15 8 13 18 14 18 12 -2 0 -11 -4 -20 -7 -20 -19 2 -23 -4 -10 -13 13 -9 13
-10 0 -6 -8 2 -14 11 -12 18 2 8 0 11 -4 7 -4 -4 -14 -2 -23 4 -13 10 -14 10
-3 -2 17 -20 15 -35 -3 -20 -8 7 -15 11 -16 9 0 -2 -3 -17 -5 -34 -4 -28 -3
-28 8 -10 14 22 31 26 45 10 4 -5 4 -7 0 -3 -5 3 -17 -2 -28 -13 -19 -19 -54
-16 -42 4 3 5 1 7 -5 4 -5 -4 -8 -16 -5 -27 3 -11 2 -28 -2 -37 -5 -10 -7 -25
-6 -33 2 -13 0 -13 -8 -1 -5 8 -6 22 -2 30 11 24 8 44 -9 48 -13 4 -13 3 0 -6
14 -10 7 -16 -15 -11 -6 1 -5 -3 1 -10 12 -12 7 -60 -6 -60 -5 0 -7 11 -6 23
2 14 -2 24 -10 24 -9 0 -10 -5 -3 -18 7 -13 5 -21 -8 -28 -12 -7 -14 -10 -4
-11 11 0 11 -3 1 -15 -14 -16 -34 -10 -24 7 4 7 2 8 -5 4 -9 -6 -9 -11 -1 -21
7 -9 5 -19 -11 -36 -17 -19 -20 -20 -15 -5 6 16 4 17 -9 6 -15 -12 -21 -4 -16
23 1 4 -8 3 -18 -3 -13 -7 -22 -7 -26 0 -3 5 0 10 7 10 8 0 5 5 -5 11 -11 6
-25 25 -33 43 -8 19 -13 24 -14 13 0 -10 -4 -16 -10 -12 -5 3 -6 13 -3 23 6
15 5 15 -11 3 -14 -12 -19 -12 -26 -1 -4 7 -15 10 -25 7 -9 -4 -14 -3 -10 3 3
6 12 10 19 10 8 0 20 8 27 17 10 11 10 14 2 9 -13 -7 -16 2 -14 34 0 10 -1 11
-5 2 -3 -6 -11 -9 -16 -6 -6 4 -8 2 -5 -3 4 -6 -1 -14 -10 -17 -9 -4 -19 -2
-23 4 -10 17 1 61 13 53 6 -3 7 -1 3 6 -4 6 -11 9 -16 6 -5 -3 -13 2 -18 11
-8 15 -10 15 -15 0 -5 -11 -3 -15 5 -10 7 5 8 3 3 -6 -5 -8 -4 -11 2 -7 5 3
10 0 10 -8 0 -11 -4 -12 -13 -4 -7 6 -17 8 -22 5 -5 -3 -9 1 -9 9 0 8 4 15 9
15 4 0 8 6 8 14 0 8 6 17 13 19 7 3 7 6 1 6 -6 1 -19 -8 -29 -19 -10 -11 -23
-20 -28 -20 -6 0 -2 7 9 16 17 14 17 15 1 10 -11 -3 -16 -2 -12 4 3 6 1 10 -4
10 -6 0 -11 5 -11 10 0 6 8 5 20 -2 16 -10 22 -10 32 0 11 11 10 12 -5 6 -26
-9 -49 13 -37 37 9 15 8 17 -6 12 -12 -4 -15 -3 -10 6 5 7 2 10 -6 9 -8 -2
-13 6 -12 20 1 12 -1 20 -5 17 -3 -4 -6 -12 -6 -17 0 -6 -6 -13 -14 -16 -8 -3
-11 0 -8 6 4 5 -2 12 -13 15 -21 5 -28 -7 -10 -16 6 -3 5 -4 -2 -3 -7 2 -13
11 -13 21 0 9 -14 27 -31 39 -31 21 -34 25 -34 47 0 5 -4 8 -8 5 -11 -7 -47
35 -48 56 -1 10 3 15 7 12 5 -3 9 0 9 6 0 7 -8 9 -19 5 -11 -3 -23 0 -27 6 -5
8 -3 9 6 4 8 -5 11 -4 6 3 -3 5 0 13 6 16 7 3 2 3 -11 0 -16 -4 -21 -2 -17 5
4 7 1 9 -7 5 -8 -3 -18 0 -22 5 -3 6 -11 9 -16 5 -5 -3 -9 -2 -8 3 1 4 0 10
-1 13 -7 19 -5 50 4 50 6 1 -5 9 -24 20 -20 11 -44 16 -55 13 -18 -5 -19 -4
-5 12 8 11 10 16 3 11 -9 -5 -12 1 -9 24 3 25 1 28 -10 19 -17 -14 -19 2 -2
19 9 9 6 11 -10 7 -15 -2 -26 3 -34 18 -7 12 -12 24 -11 27 1 3 -10 5 -24 5
-21 0 -22 -1 -7 -10 9 -5 26 -20 37 -32 11 -12 25 -20 30 -16 6 3 7 1 3 -6 -9
-13 -25 -5 -44 21 -11 15 -17 17 -28 7 -12 -10 -13 -9 -8 6 5 11 3 16 -2 12
-5 -3 -11 6 -12 19 -2 22 0 24 21 14 21 -11 21 -10 3 4 -10 9 -23 13 -27 10
-5 -3 -13 6 -18 19 -12 31 -27 41 -37 26 -5 -8 -3 -9 6 -4 9 6 11 4 5 -5 -6
-9 -4 -11 6 -5 8 5 11 4 6 0 -4 -5 1 -17 10 -27 16 -18 16 -18 0 -12 -9 3 -17
10 -17 16 0 5 -5 6 -12 2 -6 -4 -8 -3 -4 4 3 6 2 13 -3 17 -6 3 -7 13 -4 22 4
10 2 14 -4 10 -6 -4 -9 3 -8 18 2 13 0 24 -3 24 -21 -3 -32 2 -26 13 4 6 3 8
-3 5 -6 -4 -17 0 -24 9 -10 13 -10 17 2 26 11 8 10 9 -4 4 -12 -4 -20 1 -26
17 -5 12 -6 27 -3 32 3 6 -1 5 -7 -1 -10 -9 -10 -17 -1 -35 7 -13 9 -21 5 -17
-5 4 -15 2 -24 -5 -14 -11 -14 -10 -2 6 10 13 11 21 3 29 -8 8 -8 17 -1 30 6
12 6 18 -1 18 -10 0 -15 -20 -11 -54 1 -11 -2 -16 -6 -13 -4 4 -7 20 -8 35 0
15 -6 26 -13 24 -10 -2 -16 9 -14 29 1 3 -6 6 -13 6 -11 0 -12 -4 -4 -14 14
-16 -2 -18 -18 -2 -9 9 -12 -268 -13 -1120 l0 -1131 1250 0 1250 0 0 1250 0
1249 -65 -1 c-36 0 -65 -5 -65 -10z m23 -23 c-12 -32 -23 -14 -14 23 1 2 5 1
11 -3 5 -3 7 -12 3 -20z m-138 -205 c3 -6 -1 -7 -9 -4 -18 7 -21 14 -7 14 6 0
13 -4 16 -10z m-2191 -42 c-2 -3 -13 -6 -24 -5 -24 2 -18 13 9 13 11 0 18 -4
15 -8z m99 -97 c14 -17 27 -28 30 -25 3 3 7 1 10 -3 3 -5 -3 -10 -14 -10 -10
-1 -19 3 -19 8 0 16 -27 39 -35 31 -5 -4 -5 -2 -1 5 3 6 -1 13 -11 16 -16 4
-16 5 -1 6 9 0 27 -12 41 -28z m37 -55 c0 -2 -7 -7 -16 -10 -8 -3 -12 -2 -9 4
6 10 25 14 25 6z m60 -80 c0 -2 -8 -10 -17 -17 -16 -13 -17 -12 -4 4 13 16 21
21 21 13z m138 -105 c11 -6 9 -9 -5 -13 -12 -3 -20 0 -20 8 0 16 6 17 25 5z
m2 -35 c0 -2 -7 -7 -16 -10 -8 -3 -12 -2 -9 4 6 10 25 14 25 6z m64 -37 c19 3
24 0 22 -14 -1 -8 -6 -18 -10 -22 -4 -4 -7 -3 -6 2 5 21 0 35 -11 33 -6 -2
-14 4 -16 12 -4 12 -3 12 5 2 5 -8 12 -13 16 -13z m1380 12 c-9 -9 -34 -9 -34
-1 0 5 9 8 20 7 10 -1 17 -3 14 -6z m-1360 -91 c-6 -6 -10 -3 -10 10 0 13 4
16 10 10 7 -7 7 -13 0 -20z m60 -36 c7 -19 2 -18 -19 6 -16 17 -16 20 -3 15 9
-4 19 -13 22 -21z m1166 6 c0 -5 -2 -10 -4 -10 -3 0 -8 5 -11 10 -3 6 -1 10 4
10 6 0 11 -4 11 -10z m-1138 -37 c-6 -2 -9 -10 -6 -15 4 -7 2 -8 -4 -4 -18 11
-14 26 6 25 10 0 12 -3 4 -6z m1098 -17 c0 -3 -4 -8 -10 -11 -5 -3 -10 -1 -10
4 0 6 5 11 10 11 6 0 10 -2 10 -4z m-80 -66 c0 -5 -9 -8 -19 -7 -15 1 -17 4
-9 14 11 13 28 9 28 -7z m-55 -80 c3 -6 -1 -7 -9 -4 -18 7 -21 14 -7 14 6 0
13 -4 16 -10z m-730 -62 c-3 -11 -7 -23 -11 -27 -4 -3 -4 2 -1 11 3 9 -1 22
-10 30 -15 11 -16 11 -9 -7 5 -14 4 -17 -3 -10 -6 6 -8 21 -4 33 5 21 7 22 24
7 9 -9 16 -26 14 -37z m-58 27 c0 -8 -4 -12 -9 -9 -5 3 -6 10 -3 15 9 13 12
11 12 -6z m704 -14 c-18 -14 -19 -19 -9 -31 11 -12 11 -12 -4 -2 -11 9 -18 10
-23 2 -3 -5 0 -10 7 -10 8 0 7 -4 -4 -10 -9 -6 -15 -19 -13 -30 2 -11 0 -22
-5 -25 -5 -3 -7 3 -5 15 2 11 -1 22 -6 26 -6 4 3 20 22 40 18 19 30 34 25 34
-4 0 -5 4 -1 10 3 5 13 6 22 3 13 -5 12 -8 -6 -22z m-1 -67 c0 -8 -19 -13 -24
-6 -3 5 1 9 9 9 8 0 15 -2 15 -3z m-556 -82 c3 -5 -1 -9 -9 -9 -8 0 -12 4 -9
9 3 4 7 8 9 8 2 0 6 -4 9 -8z m69 -15 c3 -8 -3 -14 -15 -14 -16 -2 -17 1 -8
13 15 17 17 17 23 1z m380 -2 c-3 -9 -8 -14 -10 -11 -3 3 -2 9 2 15 9 16 15
13 8 -4z m-307 -95 c7 -8 13 -19 14 -25 4 -20 22 -34 36 -28 10 4 12 0 7 -13
-4 -10 -2 -15 3 -11 13 8 41 -10 31 -20 -5 -4 -12 -1 -17 7 -6 9 -10 10 -10 3
0 -6 -9 -11 -19 -10 -13 1 -17 5 -11 12 9 11 -13 37 -41 48 -9 4 -8 6 5 6 11
1 16 4 12 9 -11 10 -30 9 -39 -3 -5 -5 -5 1 -2 14 5 16 4 21 -4 17 -6 -4 -11
-2 -11 4 0 15 33 8 46 -10z m177 -17 c-5 -12 -3 -14 7 -8 8 5 11 4 6 -3 -4 -6
-14 -8 -23 -5 -12 5 -14 3 -8 -7 6 -9 4 -11 -5 -5 -10 6 -12 4 -6 -11 4 -10 4
-15 0 -11 -9 9 -35 -13 -28 -24 3 -5 0 -9 -5 -9 -18 0 -13 11 24 55 19 23 31
46 27 50 -4 5 -2 5 5 1 7 -4 9 -14 6 -23z m-103 -100 c0 -1 -8 -7 -18 -12 -13
-7 -19 -6 -19 2 0 7 9 13 19 13 10 0 18 -1 18 -3z m27 -15 c-3 -8 -6 -5 -6 6
-1 11 2 17 5 13 3 -3 4 -12 1 -19z"/>
<path d="M2190 2257 c0 -8 7 -14 15 -14 11 0 12 4 4 14 -6 7 -13 13 -15 13 -2
0 -4 -6 -4 -13z"/>
<path d="M233 2095 c0 -8 4 -12 9 -9 5 3 6 10 3 15 -9 13 -12 11 -12 -6z"/>
<path d="M250 2076 c0 -2 8 -10 18 -17 15 -13 16 -12 3 4 -13 16 -21 21 -21
13z"/>
<path d="M1974 2035 c-4 -8 -10 -13 -14 -10 -5 3 -6 -4 -3 -16 5 -17 2 -20
-13 -17 -10 2 -18 10 -16 17 1 7 -2 10 -8 6 -8 -5 -7 -12 2 -23 11 -13 10 -15
-4 -9 -12 4 -15 2 -11 -9 3 -9 0 -14 -8 -12 -7 2 -13 -2 -14 -8 0 -7 -11 -21
-25 -33 -14 -11 -21 -20 -16 -21 5 0 3 -7 -4 -15 -7 -8 -17 -12 -23 -8 -6 3
-7 1 -3 -6 6 -8 12 -9 20 -2 7 6 15 8 19 5 3 -3 4 2 3 12 -2 15 66 89 83 89
10 1 46 24 37 25 -4 0 -1 11 8 25 9 14 12 25 6 25 -6 0 -13 -7 -16 -15z"/>
<path d="M1836 1933 c-6 -14 -5 -15 5 -6 7 7 10 15 7 18 -3 3 -9 -2 -12 -12z"/>
<path d="M1795 1889 c-4 -6 -5 -12 -2 -15 2 -3 7 2 10 11 7 17 1 20 -8 4z"/>
<path d="M455 1860 c-3 -5 -1 -10 4 -10 6 0 11 5 11 10 0 6 -2 10 -4 10 -3 0
-8 -4 -11 -10z"/>
<path d="M507 1776 c-3 -8 3 -22 14 -32 10 -9 19 -15 20 -13 0 2 2 12 4 22 2
9 -1 17 -6 17 -5 0 -9 -5 -9 -11 0 -5 -5 -7 -10 -4 -8 5 -7 11 1 21 7 8 7 14
1 14 -5 0 -12 -6 -15 -14z"/>
<path d="M1693 1748 c-2 -18 0 -20 7 -8 12 18 13 30 2 30 -4 0 -9 -10 -9 -22z"/>
<path d="M1651 1723 c1 -5 0 -10 -1 -13 -1 -3 -3 -13 -5 -24 -3 -14 -1 -16 8
-7 14 14 20 51 7 51 -6 0 -9 -3 -9 -7z"/>
<path d="M612 1670 c-10 -17 -9 -23 5 -37 20 -20 37 -23 50 -9 5 5 3 6 -4 2
-12 -6 -18 5 -14 27 0 4 -5 6 -11 5 -7 -2 -12 5 -10 15 4 22 0 22 -16 -3z m19
-27 c13 -16 12 -17 -3 -4 -10 7 -18 15 -18 17 0 8 8 3 21 -13z"/>
<path d="M667 1604 c-3 -4 -2 -15 4 -26 6 -11 13 -17 16 -14 3 3 14 -5 24 -18
20 -26 50 -28 57 -5 3 11 1 11 -7 -1 -8 -12 -11 -12 -11 -1 0 8 -6 11 -16 7
-10 -4 -19 4 -29 27 -10 23 -14 27 -15 12 0 -16 -2 -17 -9 -5 -6 8 -7 18 -5
22 6 10 0 11 -9 2z"/>
<path d="M716 1577 c3 -10 9 -15 12 -12 3 3 0 11 -7 18 -10 9 -11 8 -5 -6z"/>
<path d="M1506 1554 c-9 -24 -7 -31 4 -14 9 13 10 13 10 0 0 -13 2 -13 9 0 10
15 6 30 -9 30 -4 0 -11 -7 -14 -16z"/>
<path d="M1433 1515 c0 -7 6 -11 14 -8 7 3 13 6 13 8 0 2 -6 5 -13 8 -8 3 -14
-1 -14 -8z"/>
<path d="M1470 1499 c0 -5 5 -7 10 -4 6 3 10 8 10 11 0 2 -4 4 -10 4 -5 0 -10
-5 -10 -11z"/>
<path d="M835 1451 c-3 -5 -2 -12 3 -15 5 -3 9 1 9 9 0 17 -3 19 -12 6z"/>
<path d="M1375 1440 c-3 -5 -1 -10 4 -10 6 0 11 5 11 10 0 6 -2 10 -4 10 -3 0
-8 -4 -11 -10z"/>
<path d="M906 1402 c-3 -5 1 -9 9 -9 8 0 12 4 9 9 -3 4 -7 8 -9 8 -2 0 -6 -4
-9 -8z"/>
<path d="M935 1340 c-3 -5 -1 -10 4 -10 6 0 11 5 11 10 0 6 -2 10 -4 10 -3 0
-8 -4 -11 -10z"/>
<path d="M915 1310 c3 -5 8 -10 11 -10 2 0 4 5 4 10 0 6 -5 10 -11 10 -5 0 -7
-4 -4 -10z"/>
<path d="M981 1261 c-7 -5 -9 -11 -5 -14 5 -3 15 1 22 9 14 16 5 18 -17 5z"/>
<path d="M1170 1220 c0 -5 5 -10 11 -10 5 0 7 5 4 10 -3 6 -8 10 -11 10 -2 0
-4 -4 -4 -10z"/>
<path d="M1055 1200 c3 -5 8 -10 11 -10 2 0 4 5 4 10 0 6 -5 10 -11 10 -5 0
-7 -4 -4 -10z"/>
<path d="M1110 1196 c0 -2 8 -10 18 -17 15 -13 16 -12 3 4 -13 16 -21 21 -21
13z"/>
</g>
</svg>
